<?xml version="1.0" encoding="utf-8"?>
<!-- Generator: Adobe Illustrator 26.0.3, SVG Export Plug-In . SVG Version: 6.00 Build 0)  -->
<svg version="1.1" id="Capa_1" xmlns="http://www.w3.org/2000/svg" xmlns:xlink="http://www.w3.org/1999/xlink" x="0px" y="0px"
	 viewBox="0 0 326.39 118.37" style="enable-background:new 0 0 326.39 118.37;" xml:space="preserve">
<style type="text/css">
	.st0{fill:#D02D2F;}
</style>
<g>
	<polygon class="st0" points="169.67,28.17 130.48,28.17 117.36,89.96 156.47,89.96 159.31,76.75 136.06,76.75 138.73,64.15 
		155.87,64.15 158.53,51.57 141.38,51.57 143.6,41.2 166.92,41.2 	"/>
	<path class="st0" d="M223.32,32.36l-9.59,11.57c-3.76-2.61-8.84-4.04-13.27-3.98c-3.18,0.04-7.95,1.62-8.14,5.43
		c-0.11,2.34,1.9,4.59,5.64,5.6l6.06,1.69c5.51,1.52,11.73,4.49,11.85,13c0.24,17.19-15.13,25.25-30.38,25.47
		c-9.24,0.13-15.98-2.05-21.5-5.22l9.54-11.64c3.86,2.11,9.3,3.86,14.8,3.78c4.25-0.06,9.9-1.63,9.83-6.87
		c-0.07-4.72-7.25-5.21-12.15-7.08c-6.49-2.68-11.64-7.22-11.9-13.52c-0.6-14.87,14.83-23.43,28.4-23.62
		C211.09,26.86,218.57,28.79,223.32,32.36"/>
	<path class="st0" d="M255.45,44.84c0,4.96-1.77,10.54-9.23,10.54h-4.95l3.01-14.18h5.84C253.23,41.2,255.45,41.81,255.45,44.84
		 M273.09,42.53c0-10.2-7.89-14.36-21.46-14.36h-20.47l-13.12,61.79h15.86l4.7-21.98h6.47C265.99,67.97,273.09,53.71,273.09,42.53"
		/>
	<path class="st0" d="M299.44,65.85h-11.39c0,0,10.36-22.46,11.07-24.76C298.68,43.39,299.44,65.85,299.44,65.85 M317.53,89.96
		l-5.59-61.79h-19.99l-32.98,61.79h17.28l5.86-11.88h18.13l0.72,11.88H317.53z"/>
	<path class="st0" d="M67.58,59.34c0,6.7-5.43,12.13-12.13,12.13c-6.7,0-12.13-5.43-12.13-12.13c0-6.7,5.43-12.12,12.13-12.12
		C62.15,47.22,67.58,52.65,67.58,59.34 M89.82,38.68l2.56-12.15c-28.56-2.29-45.51,8.23-45.51,8.23c2.74-7.49,6.39-13.12,8.08-15.52
		l-9.26-8.31C29.58,33.6,30.01,54.45,30.01,54.45c-2.16-2.62-3.28-4.17-5.09-7.03c-1.85-2.91-2.91-4.82-4.2-7.61L8.86,43.68
		c12.42,25.96,29.8,35.25,29.8,35.25c-7.9,1.25-14.47,0.97-17.37,0.75L18.71,91.9c27.02,2.42,45.48-8.18,45.48-8.18
		c-1.66,5.48-6.18,12.58-8.08,15.43l9.24,8.29C81,85.53,81.09,63.85,81.09,63.85c4.35,4.84,7.86,11.7,9.29,14.74l11.88-3.88
		C91.37,50.56,72.41,39.46,72.41,39.46C80.12,38.19,86.87,38.45,89.82,38.68"/>
</g>
</svg>
