<svg width="141" height="72" viewBox="0 0 141 72" fill="none" xmlns="http://www.w3.org/2000/svg">
<g clip-path="url(#clip0_262_943)">
<mask id="mask0_262_943" style="mask-type:luminance" maskUnits="userSpaceOnUse" x="-639" y="-458" width="1462" height="1043">
<path d="M-638.738 584.962H822.999V-457.067H-638.738V584.962Z" fill="white"/>
</mask>
<g mask="url(#mask0_262_943)">
<path d="M39.077 46.9764C31.1854 46.9764 23.5185 47.9329 16.1902 49.7301V58.5986C23.6376 56.7384 31.4356 55.753 39.4667 55.753C47.1354 55.753 54.5794 56.6499 61.7341 58.3535C66.969 59.5976 72.3657 60.411 77.9053 60.7412C82.9649 57.9042 87.8595 54.8238 92.5873 51.5102C92.6656 51.4558 92.7167 51.3639 92.7167 51.2601C92.7167 51.0916 92.5771 50.9571 92.4086 50.9571C89.415 51.7298 86.3534 52.1348 83.1964 52.1348C75.6707 52.1348 68.3526 51.2499 61.3443 49.5803C54.1913 47.875 46.7456 46.9764 39.077 46.9764ZM34.7049 21.9742C34.7049 23.4889 33.9237 24.8249 32.7341 25.6026C31.6687 26.2987 30.4723 26.7871 29.1755 27.022C27.7663 27.2756 26.3163 27.4066 24.8323 27.4066L24.8306 18.2641H29.6503C30.3957 18.2641 31.1326 18.3475 31.8372 18.4871C33.4778 18.8138 34.7049 20.2519 34.7049 21.9742ZM44.5792 42.3899L37.3411 29.7756C37.6883 29.6514 38.032 29.5186 38.369 29.374C41.2979 28.1214 43.3436 25.2367 43.3436 21.8772C43.3436 18.7543 41.286 16.0993 38.432 15.2059C37.1318 14.8025 35.7583 14.5251 34.3526 14.4162C33.0234 14.3124 31.6772 14.2579 30.3226 14.2579H16.1902V42.3899H24.8306V31.3822C26.1359 31.3822 27.4294 31.3379 28.7143 31.2528L34.7049 42.3899H44.5792ZM64.7719 32.2995C64.7719 33.6916 64.6613 35.0599 64.4519 36.3942C64.2341 37.7676 63.2283 38.8755 61.8889 39.2363C61.2899 39.3963 60.6585 39.4831 60.0066 39.4831C59.3565 39.4831 58.7251 39.3963 58.1244 39.2363C56.7833 38.8755 55.7792 37.7676 55.5631 36.3942C55.352 35.0599 55.2397 33.6916 55.2397 32.2995C55.2397 30.9056 55.352 29.5373 55.5631 28.2031C55.7792 26.8314 56.7833 25.7234 58.1244 25.3626C58.7251 25.2027 59.3565 25.1159 60.0066 25.1159C60.6585 25.1159 61.2899 25.2027 61.8889 25.3626C63.2283 25.7234 64.2341 26.8314 64.4519 28.2031C64.6613 29.5373 64.7719 30.9056 64.7719 32.2995ZM72.6805 35.305C72.866 34.3332 72.9681 33.3257 72.9681 32.2978C72.9681 31.2698 72.866 30.2674 72.6805 29.294C72.0185 25.8851 69.4163 23.1655 66.0347 22.3299C64.1065 21.8534 62.0863 21.5964 60.0066 21.5964C57.9304 21.5964 55.9102 21.8534 53.982 22.3299C50.6004 23.1655 47.9965 25.8851 47.3379 29.294C47.149 30.2674 47.0486 31.2698 47.0486 32.2978C47.0486 33.3257 47.149 34.3332 47.3379 35.305C47.9965 38.7138 50.6004 41.4334 53.982 42.2691C55.9102 42.7456 57.9304 43.0026 60.0066 43.0026C62.0863 43.0026 64.1065 42.7456 66.0347 42.2691C69.4163 41.4334 72.0185 38.7138 72.6805 35.305ZM85.8615 35.4462C85.6079 34.4353 85.4956 33.3819 85.4956 32.2995C85.4956 31.2171 85.6079 30.1653 85.8615 29.1578C86.1611 27.9495 87.0001 26.9556 88.1437 26.4808C88.9896 26.1285 89.9239 25.9294 90.8991 25.9294C92.7626 25.9294 94.5547 26.1574 96.2974 26.5829L97.6538 22.82C95.1333 22.027 92.4461 21.5964 89.6601 21.5964C87.4766 21.5964 85.3816 21.9827 83.4432 22.6839C80.4325 23.7697 78.1742 26.3599 77.5564 29.5322C77.3828 30.4257 77.2892 31.3515 77.2892 32.2995C77.2892 33.2457 77.3828 34.1749 77.5564 35.0701C78.1742 38.2424 80.4325 40.831 83.4432 41.9168C85.3816 42.6196 87.4766 43.0026 89.6601 43.0026C92.4461 43.0026 95.1333 42.5737 97.6538 41.7806L96.2974 38.0178C94.5547 38.445 92.7626 38.6713 90.8991 38.6713C89.9239 38.6713 88.9896 38.4722 88.1437 38.1199C87.0001 37.6434 86.1611 36.6512 85.8615 35.4462ZM116.647 39.4678C115.743 39.5818 114.819 39.6397 113.881 39.6397C112.799 39.6397 111.752 39.4474 110.806 39.0934C109.698 38.6815 108.9 37.6246 108.9 36.3789C108.9 34.997 109.741 33.8141 110.966 33.3121C111.652 33.0313 112.387 32.8339 113.153 32.7471C114.3 32.6126 115.466 32.5446 116.65 32.5446L116.647 39.4678ZM113.929 43.0026C117.7 43.0026 121.351 42.475 124.807 41.4964V29.9015C124.807 29.1289 124.736 28.3733 124.593 27.6397C124.067 25.0257 122.074 22.929 119.499 22.2652C117.811 21.8312 116.068 21.5964 114.256 21.5964C110.663 21.5964 107.169 22.0202 103.827 22.8217L105.147 26.491C107.448 25.8749 109.873 25.5481 112.367 25.5481C113.294 25.5481 114.194 25.6383 115.067 25.817C115.969 25.9991 116.65 26.7922 116.65 27.7402L116.647 29.5629C114.984 29.5629 113.34 29.6173 111.706 29.7228C109.998 29.8369 108.34 30.1296 106.754 30.5891C105.961 30.8189 105.191 31.1167 104.463 31.4724C102.608 32.3676 101.357 34.2464 101.357 36.4163C101.357 38.6883 102.746 40.6387 104.73 41.4794C106.333 42.1635 108.073 42.6179 109.892 42.8C111.206 42.9345 112.564 43.0026 113.929 43.0026ZM124.809 58.2922V48.5047H101.139C100.482 48.5047 99.9105 48.8451 99.5871 49.3591L93.9505 58.2922H124.809Z" fill="#211E1E"/>
</g>
</g>
<defs>
<clipPath id="clip0_262_943">
<rect width="141" height="72" fill="white"/>
</clipPath>
</defs>
</svg>
