<svg xmlns="http://www.w3.org/2000/svg" fill="none" height="36" width="136" xmlns:v="https://vecta.io/nano"><clipPath id="A"><path d="M0 0h136v36H0z"/></clipPath><g clip-path="url(#A)"><path d="M57.556 27.184v-3.498h-2.171c-2.658 0-3.65.731-3.65 2.7 0 1.631.692 2.39 2.182 2.39 1.628 0 2.442-.652 3.639-1.592zm.393 3.538v-1.063c-2.143 2.036-3.799 2.25-5.455 2.25-3.234 0-5.09-2.013-5.09-5.444 0-3.807 2.443-5.652 7.51-5.652h2.642v-.973c0-2.16-.759-2.879-3.057-2.879-1.571-.002-3.136.187-4.663.562-.077.014-.155.011-.231-.009a.55.55 0 0 1-.207-.103c-.061-.049-.111-.11-.148-.18a.57.57 0 0 1-.063-.226v-2.21c0-.18.061-.355.172-.496s.265-.24.438-.28a24.22 24.22 0 0 1 5.721-.596c4.73 0 6.397 1.642 6.397 6.186v11.113a.67.67 0 0 1-.191.469.65.65 0 0 1-.462.194h-2.658a.65.65 0 0 1-.462-.194.67.67 0 0 1-.191-.469zm41.228-3.538v-3.498h-2.149c-2.664 0-3.65.731-3.65 2.7 0 1.631.692 2.39 2.182 2.39 1.601 0 2.42-.652 3.617-1.592zm.388 3.538v-1.063c-2.143 2.036-3.794 2.25-5.45 2.25-3.234 0-5.095-2.013-5.095-5.444 0-3.819 2.448-5.663 7.516-5.663h2.642v-.962c0-2.16-.792-2.879-3.184-2.879a21.13 21.13 0 0 0-4.929.562c-.077.014-.155.011-.231-.009a.55.55 0 0 1-.207-.103.56.56 0 0 1-.148-.18.57.57 0 0 1-.063-.226V14.84a.8.8 0 0 1 .168-.495.78.78 0 0 1 .436-.281c1.961-.45 3.966-.665 5.976-.641 4.835 0 6.54 1.642 6.54 6.186v11.113c0 .176-.068.345-.191.469a.65.65 0 0 1-.462.194h-2.636c-.088.004-.176-.011-.259-.042a.65.65 0 0 1-.222-.142c-.064-.062-.114-.137-.149-.219a.67.67 0 0 1-.052-.261zm32.295 1.198c-4.204 0-6.015-1.586-6.015-6.153V10.324a.67.67 0 0 1 .191-.469.65.65 0 0 1 .462-.194h3.052a.65.65 0 0 1 .462.194c.123.124.192.293.192.469v3.627h4.884c.087 0 .173.018.253.052s.153.084.214.147.108.137.14.219.048.169.047.257v2.3a.67.67 0 0 1-.191.469.65.65 0 0 1-.463.194h-4.884v8.121c0 1.772.753 2.581 2.398 2.581a23.1 23.1 0 0 0 2.769-.152.55.55 0 0 1 .236.018c.076.023.147.063.207.116s.108.119.14.193a.56.56 0 0 1 .048.235v2.143a.8.8 0 0 1-.187.512.78.78 0 0 1-.466.27 16.85 16.85 0 0 1-3.489.292zm-20.697-17.294v1.018c1.57-1.42 3.596-2.21 5.699-2.221 3.467 0 5.322 1.575 5.333 5.399l.044 11.9c0 .176-.068.345-.191.469a.65.65 0 0 1-.462.194h-3.09a.65.65 0 0 1-.463-.194.67.67 0 0 1-.191-.469V20.149c0-2.21-.731-2.924-2.531-2.924-1.324 0-2.42.456-3.749 1.462v12.035a.67.67 0 0 1-.192.469.65.65 0 0 1-.462.194h-3.046a.64.64 0 0 1-.25-.05.65.65 0 0 1-.212-.144c-.061-.062-.109-.135-.142-.215a.67.67 0 0 1-.05-.254V14.626a.67.67 0 0 1 .05-.254c.033-.081.081-.154.142-.215a.65.65 0 0 1 .212-.144.64.64 0 0 1 .25-.05h2.658c.172.003.335.074.455.198a.67.67 0 0 1 .188.465zM81.875 30.722V7.579a.67.67 0 0 1 .189-.467.65.65 0 0 1 .459-.196h3.052a.65.65 0 0 1 .462.194.67.67 0 0 1 .192.469v23.143a.67.67 0 0 1-.192.469.65.65 0 0 1-.462.194h-3.052a.65.65 0 0 1-.459-.196.67.67 0 0 1-.189-.467zm-8.197 0V7.579a.67.67 0 0 1 .191-.469.65.65 0 0 1 .462-.194h3.052c.086 0 .171.017.25.051s.151.082.212.144.109.135.142.215.05.167.05.254v23.143c0 .087-.017.174-.05.254s-.081.154-.142.215a.65.65 0 0 1-.212.144c-.079.033-.164.05-.25.05h-3.052c-.087.002-.174-.013-.255-.046a.65.65 0 0 1-.218-.143c-.062-.062-.112-.136-.146-.217a.67.67 0 0 1-.051-.258zm-8.103 0V14.626a.67.67 0 0 1 .191-.469.65.65 0 0 1 .462-.194h3.052a.65.65 0 0 1 .462.194.67.67 0 0 1 .191.469v16.096a.67.67 0 0 1-.05.254c-.033.081-.081.154-.142.215s-.133.11-.212.144-.164.05-.25.05h-3.052a.65.65 0 0 1-.462-.194.67.67 0 0 1-.191-.469zm-.089-20.246V7.579c0-.087.017-.173.05-.254s.081-.154.142-.215.133-.111.212-.144.164-.051.25-.051h3.223a.65.65 0 0 1 .462.194.67.67 0 0 1 .191.469v2.874c.001.087-.016.174-.048.255a.66.66 0 0 1-.141.216c-.061.062-.133.111-.213.144a.64.64 0 0 1-.251.049H66.14c-.086 0-.171-.017-.25-.05a.65.65 0 0 1-.212-.144c-.061-.062-.109-.135-.142-.215s-.05-.167-.05-.254zm-16.87-2.812l-6.928 23.16c-.049.164-.149.307-.285.408s-.3.155-.469.154h-4.198c-.168.001-.331-.053-.466-.155s-.234-.244-.282-.408L29.061 7.658a.57.57 0 0 1-.022-.271c.015-.091.051-.176.105-.25s.126-.132.208-.17.172-.056.263-.052h3.517a.78.78 0 0 1 .479.167.8.8 0 0 1 .279.429l5.029 19.408 5.034-19.408a.79.79 0 0 1 .278-.432.77.77 0 0 1 .481-.165h3.378c.088 0 .175.021.253.062s.146.1.198.172.085.157.098.245a.57.57 0 0 1-.023.263zm-40.269-4.1a8.65 8.65 0 0 1 8.928 0l-1.108 2.025c-1.021-.618-2.185-.949-3.373-.962a6.64 6.64 0 0 0-3.367.962l-1.08-2.025zm12.965 3.751a20.88 20.88 0 0 1-1.041 2.531c1.963 3.212 3.028 6.906 3.079 10.686.036 3.358-1.049 6.629-3.079 9.28-1.423 1.766-3.877 3.875-7.46 3.875s-6.031-2.103-7.46-3.875c-2.035-2.661-3.12-5.944-3.079-9.313.053-3.78 1.12-7.474 3.085-10.686a20.03 20.03 0 0 1-1.041-2.497C1.574 11.153.068 15.757.001 20.498c-.048 3.905 1.22 7.709 3.594 10.781 2.215 2.773 5.367 4.718 9.216 4.718s6.978-1.946 9.221-4.718c2.372-3.074 3.64-6.877 3.594-10.781-.066-4.741-1.573-9.345-4.314-13.183z" fill="#00917e"/><path d="M15.752 19.53c.255-.337-.149-.596-.266-.652-.018-.01-.033-.026-.04-.046s-.007-.042.001-.061c.282-.754.958-1.125 1.451-.81.404.264.493 1.203 0 2.154s-1.462 1.26-1.866.995c-.277-.18-.31-.562-.044-1.412.028-.101.072-.129.172-.09s.404.157.593-.079zm5.727 5.815h-4.641c.04.184.052.374.033.562h4.608c.076-.003.147-.035.201-.089s.085-.127.087-.204a.3.3 0 0 0-.093-.191.29.29 0 0 0-.195-.079zm.731-1.159c.002.037-.004.075-.017.11s-.033.067-.058.094-.056.049-.089.064-.07.023-.107.024l-5.201.27c-.321-.799-1.108-.692-1.108-1.372a1.03 1.03 0 0 1 .104-.407c.062-.127.149-.239.257-.33.759-.9 2.027-2.154 2.166-3.993.083-1.164-.205-2.688-1.108-2.879-1.733-.36-3.484 3.695-3.484 6.248 0 1.029 0 1.361.377 1.957a1.78 1.78 0 0 1 .443 1.091c-.05.517-.521.664-.77.911-.72.709 0 1.884 1.368 1.884a1.76 1.76 0 0 0 1.142-.327c.333-.238.575-.586.685-.984l4.082.231c.036.002.072.012.105.028s.062.039.086.066.043.06.055.095.017.072.015.109-.012.073-.027.106-.038.063-.066.088-.059.043-.093.055-.071.017-.107.015l-3.323-.214c-.925 1.637-3.622 3.223-4.735 3.223s-3.805-1.586-4.73-3.223l-3.323.214c-.037.003-.074-.001-.109-.013s-.068-.03-.095-.055-.051-.055-.067-.088-.026-.07-.028-.108a.29.29 0 0 1 .077-.203.28.28 0 0 1 .195-.09l4.082-.23c.111.398.353.745.685.984a1.76 1.76 0 0 0 1.142.327c1.34 0 2.088-1.175 1.368-1.884-.249-.247-.72-.394-.77-.911a1.78 1.78 0 0 1 .443-1.091c.404-.596.371-.928.371-1.957 0-2.553-1.75-6.608-3.478-6.248-.914.191-1.202 1.715-1.108 2.88.138 1.839 1.407 3.093 2.166 3.993.103.091.187.202.247.327a1.05 1.05 0 0 1 .102.399c0 .68-.781.562-1.108 1.372l-5.201-.287c-.066-.008-.126-.04-.171-.089s-.07-.114-.073-.181a.28.28 0 0 1 .026-.107c.016-.034.038-.064.065-.088a.27.27 0 0 1 .094-.055c.035-.012.072-.016.108-.013l3.617.186c.399-2.441-.825-5.585-.593-7.598.238-1.466 1.034-2.779 2.215-3.656a.28.28 0 0 0 .103-.14c.019-.057.02-.118.002-.175a41.69 41.69 0 0 0-1.662-5.388c-.936-2.475-1.783-4.899-2.337-4.848s-.161 2.43.969 5.422 2.343 4.319 2.016 4.499-.842-.641-1.523-1.772a21.49 21.49 0 0 1-1.944-4.719C3.878 3.411 3.623.155 4.487.003s2.487 2.418 4.431 6.125c1.005 1.846 1.851 3.777 2.531 5.77.028.09.072.203.244.169.753-.135 1.523-.135 2.276 0 .166.034.216-.079.244-.169.671-1.992 1.51-3.92 2.509-5.765 1.927-3.706 3.556-6.271 4.42-6.13s.615 3.408-.094 5.731c-.455 1.647-1.106 3.231-1.939 4.719-.659 1.125-1.185 1.952-1.523 1.772s.881-1.502 2.016-4.499 1.523-5.36.969-5.422-1.407 2.373-2.376 4.831c-.673 1.756-1.228 3.556-1.662 5.388-.018.057-.017.118.002.175a.28.28 0 0 0 .103.14c1.182.877 1.977 2.189 2.215 3.656.233 2.013-.991 5.157-.593 7.598l3.611-.186c.041-.011.084-.011.126-.002a.27.27 0 0 1 .113.056c.033.027.059.062.076.102s.025.082.023.125zm-9.415 3.791a3.16 3.16 0 0 1-1.379.877 1.91 1.91 0 0 0 .631.446c.238.104.494.157.753.157s.515-.053.753-.157a1.91 1.91 0 0 0 .631-.446c-.526-.173-.999-.481-1.373-.894zm-2.653-9.1c.018-.01.033-.026.04-.046s.007-.042-.001-.061c-.282-.754-.964-1.125-1.457-.81-.399.264-.487 1.203 0 2.154s1.468 1.26 1.872.995c.271-.18.31-.562.044-1.412-.028-.101-.078-.129-.172-.09s-.404.157-.593-.079c-.255-.337.15-.596.266-.652zm-1.357 6.485H4.15a.29.29 0 0 0-.202.087.3.3 0 0 0-.086.205c.003.077.034.149.087.204s.125.086.201.089h4.608c-.019-.195-.01-.392.028-.585z" fill="#1a1a18"/></g></svg>